# xmcd
#
# Track frame offsets:
#	150
#	12798
#	28433
#	46408
#	63118
#	77600
#	93480
#	107745
#	121155
#	136535
#
# Disc length: 2068 seconds
#
# Revision: 4221920069
# Processed by: cddbd v1.5.2PL0 Copyright (c) Steve Scherf et al.
# Submitted via: EZCDAudioConverter 9.0.6.1
#
DISCID=7408120a
DTITLE=Pam Tillis - Put Yourself In My Place
DYEAR=1991
DGENRE=Country
TTITLE0=Put Yourself In My Place
TTITLE1=Melancholy Child
TTITLE2=Maybe It Was Memphis
TTITLE3=Blue Rose Is
TTITLE4=Don't Tell Me What To Do
TTITLE5=One Of Those Things
TTITLE6=Draggin' My Chains
TTITLE7=Ancient History
TTITLE8=I've Seen Enough To Know
TTITLE9=Already Fallen
EXTD=
EXTT0=
EXTT1=
EXTT2=
EXTT3=
EXTT4=
EXTT5=
EXTT6=
EXTT7=
EXTT8=
EXTT9=
PLAYORDER=
